<?xml version="1.0" encoding="UTF-8"?>
<!DOCTYPE svg PUBLIC "-//W3C//DTD SVG 1.1//EN" "http://www.w3.org/Graphics/SVG/1.1/DTD/svg11.dtd">
<!-- Creator: CorelDRAW 2020 (64 Bit) -->
<svg xmlns="http://www.w3.org/2000/svg" xml:space="preserve" width="172.415mm" height="121.598mm" version="1.1" style="shape-rendering:geometricPrecision; text-rendering:geometricPrecision; image-rendering:optimizeQuality; fill-rule:evenodd; clip-rule:evenodd"
viewBox="0 0 3980.55 2807.33"
 xmlns:xlink="http://www.w3.org/1999/xlink"
 xmlns:xodm="http://www.corel.com/coreldraw/odm/2003">
 <defs>
  <style type="text/css">
   <![CDATA[
    .str0 {stroke:#373435;stroke-width:4.62;stroke-miterlimit:22.9256}
    .fil0 {fill:#282829}
    .fil1 {fill:black;fill-rule:nonzero}
    .fil2 {fill:#9B7A03;fill-rule:nonzero}
   ]]>
  </style>
 </defs>
 <g id="Camada_x0020_1">
  <metadata id="CorelCorpID_0Corel-Layer"/>
  <path class="fil0 str0" d="M2.31 2.31l3964.86 0c6.09,0 11.07,4.98 11.07,11.07l0 1962.9c0,6.09 -4.98,11.07 -11.07,11.07l-3964.86 0 0 -1985.03zm42.45 42.45l0 1900.12 3891.02 0 0 -1900.12 -3891.02 0z"/>
  <path class="fil1" d="M1246.96 1304.81c0,66.08 -15.22,123.76 -45.68,173.02 -30.45,49.26 -71.51,87.71 -123.17,115.34 -51.66,27.64 -108.49,41.45 -170.48,41.45l-549.77 0 0 -1279.59 575.88 0c54.38,0 101.42,15.92 141.11,47.76 39.7,31.84 70.15,72.69 91.36,122.55 21.21,49.86 31.81,101.83 31.81,155.89 0,62.48 -14.41,121.05 -43.23,175.72 -28.82,54.67 -69.88,95.22 -123.17,121.65 66.35,21.63 118.82,61.58 157.43,119.85 38.61,58.27 57.91,127.06 57.91,206.36zm-148.46 -28.84c0,-39.65 -7.88,-76.29 -23.65,-109.94 -15.77,-33.64 -36.98,-60.67 -63.63,-81.1 -26.65,-20.43 -57.37,-30.64 -92.17,-30.64l-414.37 0 0 439.74 402.95 0c35.89,0 68.24,-10.21 97.07,-30.64 28.82,-20.43 51.66,-47.16 68.52,-80.2 16.86,-33.04 25.28,-68.79 25.28,-107.23zm-593.82 -780.37l0 427.13 368.69 0c34.8,0 65.53,-9.61 92.17,-28.84 26.64,-19.23 47.85,-45.06 63.62,-77.5 15.77,-32.44 23.65,-67.88 23.65,-106.33 0,-40.85 -7.34,-77.2 -22.02,-109.04 -14.68,-31.84 -34.8,-57.37 -60.36,-76.59 -25.56,-19.22 -54.65,-28.84 -87.28,-28.84l-378.48 0zm1473.35 1148.02c-81.57,0 -155.52,-18.02 -221.87,-54.07 -66.34,-36.05 -123.71,-85.01 -172.11,-146.88 -48.4,-61.88 -85.65,-131.56 -111.75,-209.06 -26.1,-77.5 -39.15,-157.1 -39.15,-238.8 0,-85.31 13.87,-166.71 41.6,-244.2 27.73,-77.49 66.35,-146.58 115.83,-207.26 49.48,-60.67 107.4,-108.74 173.74,-144.18 66.35,-35.45 138.67,-53.16 216.97,-53.16 81.57,0 155.53,18.62 221.87,55.87 66.34,37.25 123.44,87.11 171.29,149.59 47.85,62.48 84.83,132.16 110.94,209.06 26.1,76.9 39.15,155.59 39.15,236.09 0,85.31 -13.6,166.71 -40.79,244.2 -27.19,77.5 -65.53,146.58 -115.01,207.26 -49.48,60.67 -107.4,108.43 -173.74,143.28 -66.35,34.84 -138.67,52.27 -216.98,52.27zm-396.42 -648.8c0,64.88 9.51,127.66 28.55,188.33 19.03,60.67 45.95,114.44 80.75,161.3 34.8,46.86 76.67,84.1 125.62,111.74 48.94,27.63 103.32,41.45 163.14,41.45 61.99,0 117.46,-14.42 166.4,-43.25 48.94,-28.84 90.54,-67.28 124.8,-115.34 34.26,-48.06 60.36,-102.13 78.31,-162.2 17.94,-60.07 26.91,-120.75 26.91,-182.02 0,-64.88 -9.51,-127.36 -28.55,-187.43 -19.03,-60.08 -46.22,-113.84 -81.57,-161.3 -35.35,-47.46 -77.22,-84.71 -125.61,-111.74 -48.4,-27.03 -101.96,-40.55 -160.69,-40.55 -61.99,0 -117.46,14.12 -166.4,42.35 -48.94,28.24 -90.54,66.38 -124.8,114.44 -34.26,48.06 -60.63,101.83 -79.12,161.3 -18.49,59.48 -27.73,120.45 -27.73,182.93zm1178.07 -639.8l349.12 529.86 349.12 -529.86 164.77 0 -432.32 648.8 419.26 630.78 -164.77 0 -336.07 -511.83 -336.07 511.83 -166.4 0 419.27 -630.78 -432.32 -648.8 166.4 0z"/>
  <path class="fil2" d="M677.41 2666.17c0,27.53 -6.79,51.56 -20.37,72.08 -13.58,20.52 -31.89,36.54 -54.93,48.06 -23.04,11.51 -48.38,17.27 -76.03,17.27l-245.19 0 0 -533.12 256.82 0c24.25,0 45.23,6.63 62.93,19.9 17.7,13.27 31.29,30.29 40.74,51.06 9.46,20.77 14.19,42.42 14.19,64.95 0,26.03 -6.43,50.43 -19.28,73.21 -12.85,22.78 -31.16,39.67 -54.93,50.68 29.59,9.01 52.99,25.65 70.21,49.93 17.22,24.28 25.83,52.94 25.83,85.98zm-66.21 -12.01c0,-16.52 -3.52,-31.79 -10.55,-45.8 -7.03,-14.02 -16.49,-25.28 -28.37,-33.79 -11.88,-8.51 -25.58,-12.76 -41.11,-12.76l-184.8 0 0 183.21 179.71 0c16,0 30.43,-4.25 43.29,-12.76 12.85,-8.51 23.04,-19.65 30.56,-33.41 7.52,-13.77 11.28,-28.66 11.28,-44.68zm-264.83 -325.13l0 177.96 164.43 0c15.52,0 29.22,-4.01 41.1,-12.01 11.89,-8.01 21.34,-18.77 28.38,-32.29 7.03,-13.52 10.55,-28.28 10.55,-44.3 0,-17.02 -3.27,-32.16 -9.82,-45.43 -6.55,-13.27 -15.52,-23.9 -26.92,-31.91 -11.4,-8.01 -24.37,-12.01 -38.92,-12.01l-168.79 0zm635.88 478.3c-41.23,0 -75.91,-7.38 -104.04,-22.15 -28.13,-14.77 -50.69,-34.79 -67.66,-60.07 -16.98,-25.28 -29.35,-53.94 -37.11,-85.98 -7.76,-32.04 -11.64,-65.08 -11.64,-99.11l0 -269.56 65.48 0 0 269.56c0,26.03 2.55,51.44 7.64,76.21 5.1,24.78 13.46,46.93 25.1,66.45 11.64,19.52 27.4,35.04 47.29,46.55 19.89,11.51 44.62,17.27 74.21,17.27 30.07,0 55.05,-5.88 74.94,-17.65 19.89,-11.76 35.65,-27.53 47.29,-47.31 11.64,-19.77 20.01,-41.92 25.1,-66.45 5.1,-24.53 7.64,-49.56 7.64,-75.09l0 -269.56 65.48 0 0 269.56c0,36.04 -4,70.21 -12,102.49 -8,32.29 -20.73,60.7 -38.2,85.22 -17.46,24.53 -40.14,43.93 -68.02,58.19 -27.89,14.27 -61.72,21.4 -101.49,21.4zm336.13 -3.75l0 -533.12 221.18 0c22.8,0 43.65,4.88 62.57,14.64 18.92,9.76 35.41,22.78 49.47,39.04 14.07,16.27 24.98,34.54 32.74,54.81 7.76,20.27 11.64,40.92 11.64,61.95 0,24.53 -4.49,47.81 -13.46,69.83 -8.98,22.02 -21.58,40.8 -37.83,56.32 -16.25,15.52 -35.29,26.28 -57.11,32.29l125.14 204.24 -74.21 0 -117.86 -191.47 -136.78 0 0 191.47 -65.48 0zm65.48 -251.54l156.42 0c17.95,0 33.59,-5.13 46.93,-15.39 13.34,-10.26 23.77,-23.9 31.29,-40.92 7.52,-17.02 11.28,-35.29 11.28,-54.81 0,-20.02 -4.36,-38.42 -13.09,-55.19 -8.73,-16.77 -20.13,-30.16 -34.19,-40.17 -14.07,-10.01 -29.59,-15.02 -46.56,-15.02l-152.06 0 0 221.51zm619.87 255.3c-33.95,0 -65.6,-7.63 -94.95,-22.9 -29.34,-15.27 -54.93,-35.79 -76.75,-61.57 -21.83,-25.78 -38.8,-54.81 -50.93,-87.1 -12.13,-32.29 -18.19,-65.7 -18.19,-100.24 0,-36.04 6.06,-70.21 18.19,-102.49 12.13,-32.29 28.98,-60.94 50.57,-85.97 21.58,-25.03 47.05,-44.68 76.39,-58.95 29.35,-14.27 61.24,-21.4 95.67,-21.4 49.96,0 91.19,10.76 123.68,32.29 32.5,21.53 56.99,49.56 73.48,84.1l-50.2 36.04c-15.04,-31.04 -35.65,-54.06 -61.84,-69.08 -26.19,-15.02 -55.05,-22.53 -86.58,-22.53 -26.19,0 -49.96,5.76 -71.3,17.27 -21.34,11.51 -39.65,27.16 -54.93,46.93 -15.28,19.77 -26.92,42.17 -34.92,67.2 -8,25.03 -12.01,51.06 -12.01,78.09 0,28.53 4.49,55.44 13.46,80.72 8.97,25.28 21.7,47.55 38.2,66.83 16.49,19.27 35.65,34.42 57.48,45.43 21.83,11.01 45.35,16.52 70.57,16.52 29.59,0 57.72,-7.76 84.39,-23.28 26.68,-15.52 51.9,-39.3 75.67,-71.33l0 69.83c-46.56,57.07 -101.61,85.6 -165.15,85.6zm157.15 -218.5l-111.31 0 0 -51.06 166.61 0 0 265.81 -55.29 0 0 -214.75zm368.14 218.5c-41.23,0 -75.91,-7.38 -104.04,-22.15 -28.13,-14.77 -50.69,-34.79 -67.66,-60.07 -16.98,-25.28 -29.34,-53.94 -37.11,-85.98 -7.76,-32.04 -11.64,-65.08 -11.64,-99.11l0 -269.56 65.48 0 0 269.56c0,26.03 2.55,51.44 7.64,76.21 5.09,24.78 13.46,46.93 25.1,66.45 11.64,19.52 27.4,35.04 47.29,46.55 19.89,11.51 44.62,17.27 74.21,17.27 30.07,0 55.05,-5.88 74.94,-17.65 19.89,-11.76 35.65,-27.53 47.29,-47.31 11.64,-19.77 20.01,-41.92 25.1,-66.45 5.09,-24.53 7.64,-49.56 7.64,-75.09l0 -269.56 65.48 0 0 269.56c0,36.04 -4,70.21 -12.01,102.49 -8,32.29 -20.73,60.7 -38.2,85.22 -17.46,24.53 -40.14,43.93 -68.03,58.19 -27.89,14.27 -61.72,21.4 -101.49,21.4zm686.81 -63.82l0 60.07 -350.68 0 0 -533.12 344.13 0 0 60.07 -278.65 0 0 172.7 242.27 0 0 56.31 -242.27 0 0 183.96 285.2 0zm89.49 60.07l0 -533.12 221.18 0c22.8,0 43.65,4.88 62.57,14.64 18.92,9.76 35.41,22.78 49.47,39.04 14.07,16.27 24.98,34.54 32.74,54.81 7.76,20.27 11.64,40.92 11.64,61.95 0,24.53 -4.49,47.81 -13.46,69.83 -8.97,22.02 -21.58,40.8 -37.83,56.32 -16.25,15.52 -35.29,26.28 -57.11,32.29l125.14 204.24 -74.21 0 -117.86 -191.47 -136.78 0 0 191.47 -65.48 0zm65.48 -251.54l156.42 0c17.95,0 33.59,-5.13 46.93,-15.39 13.34,-10.26 23.77,-23.9 31.29,-40.92 7.52,-17.02 11.28,-35.29 11.28,-54.81 0,-20.02 -4.36,-38.42 -13.09,-55.19 -8.73,-16.77 -20.13,-30.16 -34.19,-40.17 -14.07,-10.01 -29.59,-15.02 -46.56,-15.02l-152.06 0 0 221.51z"/>
 </g>
</svg>
