<?xml version="1.0" encoding="UTF-8"?>
<!DOCTYPE svg PUBLIC "-//W3C//DTD SVG 1.1//EN" "http://www.w3.org/Graphics/SVG/1.1/DTD/svg11.dtd">
<!-- Creator: CorelDRAW 2020 (64 Bit) -->
<svg xmlns="http://www.w3.org/2000/svg" xml:space="preserve" width="179.852mm" height="120.618mm" version="1.1" style="shape-rendering:geometricPrecision; text-rendering:geometricPrecision; image-rendering:optimizeQuality; fill-rule:evenodd; clip-rule:evenodd"
viewBox="0 0 2355.82 1579.93"
 xmlns:xlink="http://www.w3.org/1999/xlink"
 xmlns:xodm="http://www.corel.com/coreldraw/odm/2003">
 <defs>
  <style type="text/css">
   <![CDATA[
    .str0 {stroke:#FEFEFE;stroke-width:2.62;stroke-miterlimit:22.9256}
    .fil1 {fill:#373435}
    .fil2 {fill:#FEFEFE;fill-rule:nonzero}
    .fil0 {fill:#373435;fill-rule:nonzero}
   ]]>
  </style>
 </defs>
 <g id="Camada_x0020_1">
  <metadata id="CorelCorpID_0Corel-Layer"/>
  <path class="fil0" d="M772.26 758.46c0,39.89 -10.63,73.09 -31.88,99.57 -21.26,26.49 -49.87,46.27 -85.84,59.35 -35.97,13.08 -75.54,19.62 -118.7,19.62l-339.43 0 0 -696.52 387.5 0c32.7,0 60.99,8.67 84.86,26 23.87,17.33 42.18,39.73 54.94,67.2 12.75,27.47 19.13,55.92 19.13,85.35 0,32.7 -8.5,63.93 -25.51,93.69 -17,29.76 -41.86,52.16 -74.56,67.2 39.89,11.77 71.45,32.7 94.67,62.78 23.22,30.08 34.83,68.67 34.83,115.76zm-163.83 -32.37c0,-15.04 -2.94,-28.29 -8.83,-39.73 -5.89,-11.45 -13.57,-20.6 -23.05,-27.47 -9.48,-6.87 -20.77,-10.3 -33.85,-10.3l-185.41 0 0 152.06 178.54 0c13.73,0 26,-3.27 36.79,-9.81 10.79,-6.54 19.46,-15.37 26,-26.49 6.54,-11.12 9.81,-23.87 9.81,-38.26zm-251.14 -348.26l0 144.21 157.94 0c11.77,0 22.73,-2.62 32.86,-7.85 10.14,-5.23 18.48,-13.24 25.02,-24.03 6.54,-10.79 9.81,-24.36 9.81,-40.71 0,-15.7 -2.78,-28.78 -8.34,-39.24 -5.56,-10.46 -12.92,-18.48 -22.07,-24.03 -9.16,-5.56 -19.62,-8.34 -31.39,-8.34l-163.83 0zm815.22 564.08c-52.32,0 -99.57,-9.97 -141.76,-29.92 -42.18,-19.95 -78.48,-46.76 -108.89,-80.44 -30.41,-33.68 -53.79,-71.61 -70.14,-113.8 -16.35,-42.18 -24.53,-85.84 -24.53,-130.96 0,-46.43 8.67,-90.58 26,-132.44 17.33,-41.86 41.53,-79.3 72.6,-112.32 31.06,-33.03 67.85,-59.03 110.36,-77.99 42.51,-18.97 88.94,-28.45 139.3,-28.45 51.67,0 98.59,9.97 140.77,29.92 42.18,19.95 78.48,46.93 108.89,80.93 30.41,34.01 53.79,72.1 70.14,114.29 16.35,42.18 24.52,85.18 24.52,129 0,46.43 -8.5,90.58 -25.51,132.44 -17,41.86 -41.2,79.3 -72.6,112.33 -31.39,33.03 -68.18,59.19 -110.36,78.48 -42.18,19.29 -88.46,28.94 -138.81,28.94zm-181.49 -353.16c0,26.81 3.92,52.81 11.77,77.99 7.85,25.18 19.46,47.58 34.83,67.2 15.37,19.62 34.5,35.32 57.39,47.09 22.89,11.77 49.05,17.66 78.48,17.66 30.74,0 57.55,-6.05 80.44,-18.15 22.89,-12.1 41.86,-28.29 56.9,-48.56 15.04,-20.27 26.32,-43 33.85,-68.18 7.52,-25.18 11.28,-50.85 11.28,-77.01 0,-26.81 -3.92,-52.65 -11.77,-77.5 -7.85,-24.85 -19.62,-47.25 -35.32,-67.2 -15.7,-19.95 -34.99,-35.48 -57.88,-46.6 -22.89,-11.12 -48.72,-16.68 -77.5,-16.68 -30.74,0 -57.39,5.89 -79.95,17.66 -22.56,11.77 -41.53,27.63 -56.9,47.58 -15.37,19.95 -26.81,42.51 -34.34,67.69 -7.52,25.18 -11.28,50.85 -11.28,77.01zm691.61 -348.26l151.07 240.35 151.08 -240.35 174.62 0 -230.54 353.16 222.69 343.35 -174.62 0 -143.23 -230.54 -143.23 230.54 -175.6 0 222.69 -343.35 -230.54 -353.16 175.6 0z"/>
  <path class="fil1 str0" d="M1.31 1.31l2346.65 0c3.6,0 6.55,2.95 6.55,6.55l0 1161.77c0,3.6 -2.95,6.55 -6.55,6.55l-2346.65 0 0 -1174.87zm25.13 25.13l0 1124.61 2302.95 0 0 -1124.61 -2302.95 0z"/>
  <path class="fil2" d="M440.26 1524.73c0,11.16 -4.06,20.75 -12.18,28.77 -8.12,8.03 -19.05,14.19 -32.81,18.5 -13.76,4.31 -28.9,6.46 -45.41,6.46l-139.93 0 0 -208.47 151.08 0c13.76,0 25.66,2.59 35.71,7.78 10.05,5.19 17.75,11.84 23.12,19.97 5.37,8.12 8.05,16.59 8.05,25.4 0,10.18 -3.65,19.72 -10.94,28.63 -7.29,8.91 -17.68,15.51 -31.16,19.82 16.79,3.52 30.06,9.93 39.83,19.23 9.77,9.3 14.65,20.6 14.65,33.91zm-47.47 -6.17c0,-5.87 -1.72,-11.21 -5.16,-16 -3.44,-4.8 -8.12,-8.71 -14.04,-11.75 -5.92,-3.03 -12.86,-4.55 -20.85,-4.55l-96.59 0 0 63.71 93.7 0c8.25,0 15.62,-1.42 22.08,-4.26 6.47,-2.84 11.56,-6.66 15.27,-11.45 3.71,-4.8 5.57,-10.03 5.57,-15.71zm-136.63 -120.09l0 61.37 85.03 0c7.7,0 14.58,-1.32 20.64,-3.96 6.05,-2.64 10.87,-6.26 14.45,-10.86 3.58,-4.6 5.37,-9.84 5.37,-15.71 0,-6.07 -1.65,-11.4 -4.95,-16 -3.3,-4.6 -7.77,-8.22 -13.42,-10.86 -5.64,-2.64 -12.18,-3.96 -19.61,-3.96l-87.51 0zm354.58 181.46c-23.39,0 -43.14,-2.84 -59.23,-8.52 -16.1,-5.68 -29.03,-13.41 -38.8,-23.2 -9.77,-9.79 -16.92,-20.95 -21.46,-33.47 -4.54,-12.53 -6.81,-25.54 -6.81,-39.05l0 -105.7 46.23 0 0 105.7c0,9.59 1.38,18.84 4.13,27.75 2.75,8.91 7.15,16.88 13.21,23.93 6.05,7.05 14.24,12.63 24.56,16.74 10.32,4.11 23.05,6.17 38.18,6.17 15.41,0 28.28,-2.1 38.6,-6.31 10.32,-4.21 18.44,-9.89 24.36,-17.03 5.92,-7.15 10.25,-15.12 13,-23.93 2.75,-8.81 4.13,-17.91 4.13,-27.31l0 -105.7 46.64 0 0 105.7c0,14.29 -2.41,27.75 -7.22,40.37 -4.82,12.63 -12.25,23.68 -22.29,33.18 -10.05,9.49 -23.05,16.98 -39.01,22.46 -15.96,5.48 -35.36,8.22 -58.2,8.22zm188.23 -1.47l0 -208.47 127.55 0c13.21,0 25.32,1.96 36.33,5.87 11.01,3.91 20.57,9.1 28.69,15.56 8.12,6.46 14.45,13.7 18.99,21.73 4.54,8.03 6.81,16.25 6.81,24.66 0,9.2 -2.34,18.01 -7.02,26.43 -4.68,8.42 -11.35,15.66 -20.02,21.73 -8.67,6.07 -18.78,10.47 -30.34,13.21l68.94 79.28 -52.01 0 -63.57 -72.52 -68.11 0 0 72.52 -46.23 0zm46.23 -101.59l80.91 0c8.53,0 16.1,-1.76 22.7,-5.29 6.6,-3.52 11.83,-8.27 15.69,-14.24 3.85,-5.97 5.78,-12.48 5.78,-19.53 0,-7.24 -2.2,-13.75 -6.6,-19.52 -4.4,-5.78 -10.11,-10.42 -17.13,-13.95 -7.02,-3.52 -14.65,-5.29 -22.91,-5.29l-78.43 0 0 77.81zm345.5 103.06c-19.26,0 -37.29,-2.84 -54.08,-8.52 -16.79,-5.68 -31.44,-13.51 -43.96,-23.49 -12.52,-9.98 -22.29,-21.34 -29.31,-34.06 -7.02,-12.72 -10.53,-26.23 -10.53,-40.52 0,-14.29 3.51,-27.7 10.53,-40.23 7.02,-12.53 16.79,-23.68 29.31,-33.47 12.52,-9.79 27.24,-17.42 44.17,-22.9 16.92,-5.48 35.43,-8.22 55.52,-8.22 27.79,0 51.25,4.16 70.38,12.48 19.13,8.32 33.5,19.33 43.14,33.03l-35.5 18.2c-7.7,-11.35 -18.64,-19.87 -32.82,-25.54 -14.17,-5.68 -29.65,-8.51 -46.44,-8.51 -13.76,0 -26.28,2.06 -37.56,6.17 -11.28,4.11 -20.98,9.74 -29.1,16.88 -8.12,7.15 -14.24,15.27 -18.37,24.37 -4.13,9.1 -6.19,18.64 -6.19,28.63 0,10.57 2.34,20.46 7.02,29.66 4.68,9.2 11.28,17.27 19.81,24.22 8.53,6.95 18.58,12.38 30.13,16.29 11.56,3.92 24.08,5.87 37.56,5.87 15.96,0 31.17,-2.89 45.61,-8.66 14.45,-5.78 28,-14.44 40.66,-25.99l0 33.47c-25.59,20.55 -55.59,30.83 -89.99,30.83zm85.45 -82.51l-61.5 0 0 -24.37 100.31 0 0 105.41 -38.8 0 0 -81.04zm213.82 82.51c-23.39,0 -43.14,-2.84 -59.23,-8.52 -16.1,-5.68 -29.03,-13.41 -38.8,-23.2 -9.77,-9.79 -16.92,-20.95 -21.46,-33.47 -4.54,-12.53 -6.81,-25.54 -6.81,-39.05l0 -105.7 46.23 0 0 105.7c0,9.59 1.38,18.84 4.13,27.75 2.75,8.91 7.15,16.88 13.21,23.93 6.05,7.05 14.24,12.63 24.56,16.74 10.32,4.11 23.05,6.17 38.18,6.17 15.41,0 28.28,-2.1 38.6,-6.31 10.32,-4.21 18.44,-9.89 24.36,-17.03 5.92,-7.15 10.25,-15.12 13,-23.93 2.75,-8.81 4.13,-17.91 4.13,-27.31l0 -105.7 46.64 0 0 105.7c0,14.29 -2.41,27.75 -7.22,40.37 -4.82,12.63 -12.25,23.68 -22.29,33.18 -10.04,9.49 -23.05,16.98 -39.01,22.46 -15.96,5.48 -35.36,8.22 -58.2,8.22zm388.84 -30.54l0.41 29.07 -200.61 0 -0.41 -208.47 196.9 0 0.41 29.07 -151.49 0 0.41 59.31 130.44 0.29 0.41 27.01 -131.26 -0.29 0.41 64.01 154.38 0zm48.29 29.07l0 -208.47 127.55 0c13.21,0 25.32,1.96 36.33,5.87 11.01,3.91 20.57,9.1 28.69,15.56 8.12,6.46 14.45,13.7 18.99,21.73 4.54,8.03 6.81,16.25 6.81,24.66 0,9.2 -2.34,18.01 -7.02,26.43 -4.68,8.42 -11.35,15.66 -20.02,21.73 -8.67,6.07 -18.78,10.47 -30.34,13.21l68.94 79.28 -52.01 0 -63.57 -72.52 -68.11 0 0 72.52 -46.23 0zm46.23 -101.59l80.91 0c8.53,0 16.1,-1.76 22.7,-5.29 6.6,-3.52 11.83,-8.27 15.69,-14.24 3.85,-5.97 5.78,-12.48 5.78,-19.53 0,-7.24 -2.2,-13.75 -6.6,-19.52 -4.4,-5.78 -10.11,-10.42 -17.13,-13.95 -7.02,-3.52 -14.65,-5.29 -22.91,-5.29l-78.43 0 0 77.81z"/>
 </g>
</svg>
