<?xml version="1.0" encoding="iso-8859-1"?>
<!-- Generator: Adobe Illustrator 19.0.0, SVG Export Plug-In . SVG Version: 6.00 Build 0)  -->
<svg version="1.1" id="Capa_1" xmlns="http://www.w3.org/2000/svg" xmlns:xlink="http://www.w3.org/1999/xlink" x="0px" y="0px"
	 viewBox="0 0 479.997 479.997" style="enable-background:new 0 0 479.997 479.997;" xml:space="preserve">
<path style="fill:#FFDA44;" d="M399.998,87.997h-320v384h320V87.997z M311.998,135.997v48c0,8.837,7.163,16,16,16s16-7.163,16-16
	c0,8.837-7.163,16-16,16s-16-7.163-16-16V135.997z M255.998,135.997l32,64L255.998,135.997z M207.998,167.997v-32V167.997v32
	V167.997z M135.998,135.997l24,40l24-40l-24,40L135.998,135.997z"/>
<path style="fill:#FFAF46;" d="M351.998,7.997l-272,80h272V7.997z"/>
<g>
	<path style="fill:#231F20;" d="M399.998,79.997h-40v-72c-0.002-4.418-3.585-7.999-8.003-7.997c-0.763,0-1.521,0.11-2.253,0.325
		l-272,80c-0.16,0-0.28,0.16-0.44,0.216c-0.407,0.165-0.801,0.363-1.176,0.592c-0.484,0.259-0.939,0.567-1.36,0.92
		c-0.31,0.288-0.599,0.598-0.864,0.928c-0.351,0.425-0.659,0.883-0.92,1.368c-0.189,0.374-0.35,0.762-0.48,1.16
		c-0.185,0.563-0.304,1.145-0.352,1.736c0,0.264-0.152,0.488-0.152,0.752v384c0,4.418,3.582,8,8,8h320c4.418,0,8-3.582,8-8v-384
		C407.998,83.578,404.417,79.997,399.998,79.997z M343.998,18.685v61.312H135.55L343.998,18.685z M391.998,463.997h-304v-368h304
		V463.997z"/>
	<path style="fill:#231F20;" d="M186.134,128.285c-3.464-0.958-7.142,0.511-8.992,3.592l-17.144,28.568l-17.144-28.568
		c-2.277-3.786-7.192-5.01-10.979-2.733c-2.405,1.446-3.877,4.047-3.877,6.853v64c0,4.418,3.582,8,8,8s8-3.582,8-8v-35.12
		l9.144,15.24c2.595,3.786,7.769,4.752,11.555,2.157c0.846-0.58,1.577-1.311,2.157-2.157l9.144-15.24v35.12c0,4.418,3.582,8,8,8
		s8-3.582,8-8v-64C191.999,132.4,189.6,129.245,186.134,128.285z"/>
	<path style="fill:#231F20;" d="M231.998,143.997c4.418,0,8-3.582,8-8s-3.582-8-8-8h-24c-4.418,0-8,3.582-8,8v64
		c0,4.418,3.582,8,8,8h24c4.418,0,8-3.582,8-8s-3.582-8-8-8h-16v-16h16c4.418,0,8-3.582,8-8s-3.582-8-8-8h-16v-16H231.998z"/>
	<path style="fill:#231F20;" d="M287.998,127.997c-4.418,0-8,3.582-8,8v30.112l-16.8-33.688c-1.925-3.977-6.71-5.64-10.687-3.714
		c-2.79,1.351-4.548,4.191-4.513,7.29v64c0,4.418,3.582,8,8,8s8-3.582,8-8v-30.112l16.8,33.688c1.925,3.977,6.71,5.64,10.687,3.714
		c2.79-1.351,4.548-4.191,4.513-7.29v-64C295.998,131.578,292.417,127.997,287.998,127.997z"/>
	<path style="fill:#231F20;" d="M327.998,207.997c-13.255,0-24-10.745-24-24v-48c0-4.418,3.582-8,8-8s8,3.582,8,8v48
		c0,4.418,3.582,8,8,8s8-3.582,8-8v-48c0-4.418,3.582-8,8-8s8,3.582,8,8v48C351.998,197.252,341.253,207.997,327.998,207.997z"/>
	<path style="fill:#231F20;" d="M367.998,295.997h-256c-4.418,0-8-3.582-8-8s3.582-8,8-8h256c4.418,0,8,3.582,8,8
		S372.417,295.997,367.998,295.997z"/>
	<path style="fill:#231F20;" d="M367.998,343.997h-256c-4.418,0-8-3.582-8-8s3.582-8,8-8h256c4.418,0,8,3.582,8,8
		S372.417,343.997,367.998,343.997z"/>
	<path style="fill:#231F20;" d="M367.998,391.997h-256c-4.418,0-8-3.582-8-8s3.582-8,8-8h256c4.418,0,8,3.582,8,8
		S372.417,391.997,367.998,391.997z"/>
</g>
<g>
</g>
<g>
</g>
<g>
</g>
<g>
</g>
<g>
</g>
<g>
</g>
<g>
</g>
<g>
</g>
<g>
</g>
<g>
</g>
<g>
</g>
<g>
</g>
<g>
</g>
<g>
</g>
<g>
</g>
</svg>
